<?xml version="1.0" encoding="iso-8859-1"?>
<!-- Generator: Adobe Illustrator 19.0.0, SVG Export Plug-In . SVG Version: 6.00 Build 0)  -->
<svg version="1.1" id="Capa_1" xmlns="http://www.w3.org/2000/svg" xmlns:xlink="http://www.w3.org/1999/xlink" x="0px" y="0px"
	 viewBox="0 0 511.998 511.998" style="enable-background:new 0 0 511.998 511.998;" xml:space="preserve">
<g>
	<g>
		<path d="M204.8,0.006c-26.956,0.009-49.876,17.553-57.258,42.734c-0.828-0.043-1.647-0.068-2.475-0.068
			c-32.938,0-59.732,26.794-59.732,59.732v8.533c-32.938,0-59.732,26.794-59.732,59.732V358.4c0,32.93,26.794,59.732,59.86,59.732
			c0.162,0,0.324-0.009,0.486-0.009c4.25,29.678,30.66,52.761,61.593,51.139c7.373,25.181,30.293,42.726,57.258,42.734
			c32.392,0,59.732-26.205,59.732-42.666V76.805C264.532,20.119,232.353,0.006,204.8,0.006z M247.466,469.332
			c-0.154,5.999-18.56,25.608-42.666,25.608c-21.248-0.008-38.98-15.257-42.171-36.275c-0.35-2.278-1.604-4.326-3.482-5.666
			c-1.459-1.041-3.191-1.587-4.958-1.587c-0.503,0-1.024,0.051-1.527,0.145c-2.5,0.452-5.077,0.7-7.595,0.717
			c-23.526,0-42.666-19.14-42.666-43.442c0-2.509-1.101-4.898-3.021-6.519s-4.454-2.295-6.929-1.903
			c-2.381,0.401-4.813,0.623-7.117,0.657c-23.526,0-42.666-19.14-42.666-42.666V170.67c0-23.526,19.14-42.666,42.538-42.666
			c2.44,0.034,4.881,0.256,7.245,0.657c2.483,0.41,5.018-0.282,6.929-1.903c1.92-1.621,3.021-4.011,3.021-6.519v-17.834
			c0-23.526,19.14-42.666,42.606-42.666c2.577,0.017,5.154,0.256,7.654,0.717c2.253,0.401,4.608-0.111,6.494-1.451
			c1.877-1.34,3.132-3.379,3.482-5.666c3.183-21.009,20.915-36.258,42.162-36.266c26.316,0,42.666,22.886,42.666,59.732V469.332z"/>
	</g>
</g>
<g>
	<g>
		<path d="M426.663,110.938v-8.533c0-32.913-26.752-59.698-58.905-59.698c-0.026,0-0.043,0-0.068,0
			c-0.853-0.077-1.698-0.137-2.56-0.171c-7.552-25.378-30.779-42.922-57.992-42.529c-27.537,0.026-59.673,20.147-59.673,76.799
			v392.527c0,16.461,27.332,42.666,59.732,42.666c26.965-0.009,49.876-17.544,57.258-42.734
			c30.617,1.229,57.002-21.12,61.516-51.148c0.23,0.008,0.461,0.017,0.691,0.017c32.93,0,59.732-26.803,59.732-59.732V170.67
			C486.395,137.775,459.661,111.006,426.663,110.938z M469.32,358.383c0,23.526-19.14,42.666-42.538,42.666
			c-2.423-0.034-4.864-0.256-7.245-0.657c-2.492-0.41-5.018,0.674-6.929,2.295c-1.911,1.621-3.021,4.395-3.021,6.903
			c0,23.526-19.14,42.666-42.598,42.666c-2.577-0.017-5.163-0.264-7.663-0.717c-2.287-0.452-4.608,0.111-6.494,1.451
			c-1.869,1.331-3.132,3.379-3.473,5.666c-3.191,21.009-20.923,36.258-42.162,36.266c-24.106,0-42.512-19.609-42.666-25.6V76.797
			c0-36.846,16.35-59.732,42.666-59.732c0.247,0.017,0.486,0,0.734,0c20.923,0,38.553,14.865,42.043,35.541
			c0.742,4.403,4.753,7.381,9.173,7.083c2.338-0.213,4.702-0.213,7.774,0.034c23.526,0,42.666,19.14,42.666,42.666v17.834
			c0,2.517,1.101,4.898,3.021,6.519c1.92,1.621,4.42,2.33,6.929,1.903c2.364-0.401,4.804-0.623,7.117-0.657
			c23.526,0,42.666,19.14,42.666,42.666V358.383z"/>
	</g>
</g>
<g>
	<g>
		<path d="M68.269,196.27c-23.526,0-42.666,19.14-42.666,42.666v25.6h17.066v-25.6c0-14.114,11.486-25.6,25.6-25.6
			s25.6,11.486,25.6,25.6h17.066C110.935,215.41,91.795,196.27,68.269,196.27z"/>
	</g>
</g>
<g>
	<g>
		<path d="M247.466,366.934v51.199c-18.824,0-34.133-15.309-34.133-34.133h-17.066c0,28.236,22.963,51.199,51.199,51.199h8.533
			c4.71,0,8.533-3.814,8.533-8.533v-59.732H247.466z"/>
	</g>
</g>
<g>
	<g>
		<path d="M196.267,221.869c-23.526,0-42.666-19.14-42.666-42.666v-7.765c0-32.938-26.794-59.732-59.732-59.732v17.066
			c23.526,0,42.666,19.14,42.666,42.666v7.765c0,32.938,26.794,59.732,59.732,59.732h8.533v-17.066H196.267z"/>
	</g>
</g>
<g>
	<g>
		<path d="M187.623,76.805c-0.026,0-0.051,0-0.068,0c-6.605,0-12.817-2.568-17.502-7.228c-4.702-4.676-7.304-10.905-7.321-17.544
			l-17.066,0.051c0.026,11.196,4.412,21.7,12.348,29.593c7.902,7.868,18.389,12.194,29.602,12.194c0.034,0,0.077,0,0.12,0H204.8
			V76.805H187.623z"/>
	</g>
</g>
<g>
	<g>
		<path d="M153.601,221.869c0,18.824-15.309,34.133-34.133,34.133v17.066c28.228,0,51.199-22.971,51.199-51.199H153.601z"/>
	</g>
</g>
<g>
	<g>
		<path d="M76.802,281.602c0,18.824-15.309,34.133-34.133,34.133h-8.533v17.066h8.533c28.228,0,51.199-22.963,51.199-51.199H76.802z
			"/>
	</g>
</g>
<g>
	<g>
		<path d="M204.8,281.602v17.066c23.526,0,42.666,19.14,42.666,42.666h17.066C264.532,308.404,237.729,281.602,204.8,281.602z"/>
	</g>
</g>
<g>
	<g>
		<path d="M162.134,366.934H179.2c0-14.114,11.477-25.6,25.6-25.6v-17.066C181.274,324.268,162.134,343.408,162.134,366.934z"/>
	</g>
</g>
<g>
	<g>
		<path d="M68.269,204.803h17.066c0-14.122,11.477-25.6,25.6-25.6v-17.066C87.409,162.137,68.269,181.277,68.269,204.803z"/>
	</g>
</g>
<g>
	<g>
		<path d="M76.802,298.668v17.066c14.114,0,25.6,11.486,25.6,25.6h17.066C119.468,317.808,100.319,298.668,76.802,298.668z"/>
	</g>
</g>
<g>
	<g>
		<path d="M85.335,409.6h17.066c0-14.114,11.477-25.6,25.6-25.6v-17.066C104.475,366.934,85.335,386.074,85.335,409.6z"/>
	</g>
</g>
<g>
	<g>
		<path d="M204.8,409.6c0,14.114-11.486,25.6-25.6,25.6v17.066c23.517,0,42.666-19.14,42.666-42.666H204.8z"/>
	</g>
</g>
<g>
	<g>
		<path d="M136.534,153.604v17.834h17.066v-17.834c0-14.114,11.486-25.6,25.6-25.6v-17.066
			C155.674,110.938,136.534,130.078,136.534,153.604z"/>
	</g>
</g>
<g>
	<g>
		<path d="M213.333,153.604h-17.066c0,32.938,26.794,59.732,59.732,59.732V196.27C232.473,196.27,213.333,177.13,213.333,153.604z"
			/>
	</g>
</g>
<g>
	<g>
		<path d="M332.798,136.538h-17.066c0,32.938,26.803,59.732,59.732,59.732v-17.066C351.938,179.203,332.798,160.064,332.798,136.538
			z"/>
	</g>
</g>
<g>
	<g>
		<path d="M383.997,153.604h17.066c0-14.122,11.477-25.6,25.6-25.6v-17.066C403.137,110.938,383.997,130.078,383.997,153.604z"/>
	</g>
</g>
<g>
	<g>
		<path d="M247.466,384h17.066c0-14.114,11.477-25.6,25.6-25.6v-17.066C266.606,341.334,247.466,360.474,247.466,384z"/>
	</g>
</g>
<g>
	<g>
		<path d="M341.331,256.002c-28.236,0-51.199,22.963-51.199,51.199h17.066c0-18.824,15.309-34.133,34.133-34.133h8.533v-17.066
			H341.331z"/>
	</g>
</g>
<g>
	<g>
		<path d="M324.264,426.666v17.066c14.114,0,25.6,11.486,25.6,25.6h17.066C366.93,445.806,347.782,426.666,324.264,426.666z"/>
	</g>
</g>
<g>
	<g>
		<path d="M332.798,401.066h17.066c0-14.114,11.477-25.6,25.6-25.6V358.4C351.938,358.4,332.798,377.54,332.798,401.066z"/>
	</g>
</g>
<g>
	<g>
		<path d="M383.997,358.4H366.93c0,32.93,26.803,59.732,59.732,59.732v-17.066C403.137,401.066,383.997,381.927,383.997,358.4z"/>
	</g>
</g>
<g>
	<g>
		<path d="M418.13,273.069h17.066c0-23.526,19.14-42.666,42.666-42.666v-17.066C444.932,213.336,418.13,240.13,418.13,273.069z"/>
	</g>
</g>
<g>
	<g>
		<path d="M401.063,204.803v17.066c14.114,0,25.6,11.486,25.6,25.6h17.066C443.729,223.943,424.581,204.803,401.063,204.803z"/>
	</g>
</g>
<g>
	<g>
		<path d="M247.466,170.67h17.066c0-14.122,11.477-25.6,25.6-25.6v-17.066C266.606,128.004,247.466,147.144,247.466,170.67z"/>
	</g>
</g>
<g>
	<g>
		<path d="M307.198,213.336h17.066c0-14.122,11.477-25.6,25.6-25.6V170.67C326.338,170.67,307.198,189.81,307.198,213.336z"/>
	</g>
</g>
<g>
	<g>
		<path d="M315.731,85.338h17.066c0-14.122,11.477-25.6,25.6-25.6V42.672C334.871,42.672,315.731,61.812,315.731,85.338z"/>
	</g>
</g>
<g>
	<g>
		<path d="M418.13,307.201c-28.236,0-51.199,22.963-51.199,51.199h17.066c0-18.824,15.309-34.133,34.133-34.133h8.533v-17.066
			H418.13z"/>
	</g>
</g>
<g>
	<g>
		<path d="M332.798,298.668v17.066c18.824,0,34.133,15.309,34.133,34.133v8.533h17.066v-8.533
			C383.997,321.631,361.034,298.668,332.798,298.668z"/>
	</g>
</g>
<g>
	<g>
		<path d="M255.999,221.869v17.066c23.526,0,42.666,19.14,42.666,42.666h17.066C315.731,248.664,288.929,221.869,255.999,221.869z"
			/>
	</g>
</g>
<g>
</g>
<g>
</g>
<g>
</g>
<g>
</g>
<g>
</g>
<g>
</g>
<g>
</g>
<g>
</g>
<g>
</g>
<g>
</g>
<g>
</g>
<g>
</g>
<g>
</g>
<g>
</g>
<g>
</g>
</svg>
